<svg width="30" height="30" viewBox="0 0 30 30" fill="none" xmlns="http://www.w3.org/2000/svg">
<circle cx="15" cy="15" r="15" fill="white"/>
<path d="M24.7082 12.2941L20.7082 8.29409C20.6149 8.20085 20.5043 8.12689 20.3824 8.07643C20.2606 8.02597 20.13 8 19.9982 8C19.7319 8 19.4765 8.10579 19.2882 8.29409C19.0999 8.4824 18.9941 8.73779 18.9941 9.00409C18.9941 9.27039 19.0999 9.52579 19.2882 9.71409L21.5882 12.0041H9.99819C9.73297 12.0041 9.47862 12.1094 9.29108 12.297C9.10354 12.4845 8.99819 12.7389 8.99819 13.0041C8.99819 13.2693 9.10354 13.5237 9.29108 13.7112C9.47862 13.8987 9.73297 14.0041 9.99819 14.0041H23.9982C24.1956 14.0031 24.3883 13.9437 24.552 13.8334C24.7158 13.723 24.8432 13.5667 24.9182 13.3841C24.9948 13.202 25.0157 13.0013 24.9783 12.8073C24.9409 12.6133 24.8469 12.4347 24.7082 12.2941ZM19.9982 16.0041H5.99819C5.80076 16.0051 5.60804 16.0645 5.44432 16.1748C5.2806 16.2851 5.15321 16.4415 5.07819 16.6241C5.00161 16.8062 4.98068 17.0069 5.01806 17.2009C5.05543 17.3949 5.14943 17.5735 5.28819 17.7141L9.28819 21.7141C9.38115 21.8078 9.49175 21.8822 9.61361 21.933C9.73547 21.9838 9.86617 22.0099 9.99819 22.0099C10.1302 22.0099 10.2609 21.9838 10.3828 21.933C10.5046 21.8822 10.6152 21.8078 10.7082 21.7141C10.8019 21.6211 10.8763 21.5105 10.9271 21.3887C10.9778 21.2668 11.004 21.1361 11.004 21.0041C11.004 20.8721 10.9778 20.7414 10.9271 20.6195C10.8763 20.4977 10.8019 20.3871 10.7082 20.2941L8.40819 18.0041H19.9982C20.2634 18.0041 20.5178 17.8987 20.7053 17.7112C20.8928 17.5237 20.9982 17.2693 20.9982 17.0041C20.9982 16.7389 20.8928 16.4845 20.7053 16.297C20.5178 16.1094 20.2634 16.0041 19.9982 16.0041Z" fill="#B1B5C4"/>
</svg>
