<svg width="19" height="20" viewBox="0 0 19 20" fill="none" xmlns="http://www.w3.org/2000/svg">
<path fill-rule="evenodd" clip-rule="evenodd" d="M12.9981 15.0004H3.99802V8.50017C3.99802 6.00007 5.99803 4 8.49805 4C10.9981 4 12.9981 6.00007 12.9981 8.50017V15.0004ZM15 14.0005V8.50031C15 5.4302 12.86 2.86011 10 2.18008V1.50006C10 0.671598 9.32843 0 8.5 0C7.67157 0 7 0.671598 7 1.50006V2.18008C4.13 2.86011 2 5.4302 2 8.50031V14.0005L0 16.0006V17.0006H17V16.0006L15 14.0005ZM8.49994 20.0001C9.6045 20.0001 10.4999 19.1046 10.4999 18H6.49996C6.49996 19.1046 7.39538 20.0001 8.49994 20.0001Z" fill="#84878B"/>
<circle cx="14.5" cy="5.5" r="4.5" fill="#EB5757"/>
<path d="M15.085 8H14.376V4.5752L13.3301 4.93262V4.33203L14.9941 3.71973H15.085V8Z" fill="white"/>
</svg>
