<svg width="20" height="16" viewBox="0 0 20 16" fill="none" xmlns="http://www.w3.org/2000/svg">
<path fill-rule="evenodd" clip-rule="evenodd" d="M9.84848 2.00784H16.0606C18.2371 2.00784 20 3.80486 20 6.02353V14.668C20 15.4036 19.4036 16 18.668 16H18.582C17.8464 16 17.25 15.4036 17.25 14.668V12.0471H2.58333V14.7083C2.58333 15.4217 2.00503 16 1.29167 16C0.578299 16 0 15.4217 0 14.7083V0.984848C0 0.440932 0.440932 0 0.984848 0C1.52877 0 1.9697 0.44093 1.9697 0.984847V9.03529H9.84848V2.00784ZM8.86352 4.07816C8.86352 5.73964 7.53889 7.0899 5.90897 7.0899C4.27904 7.0899 2.95441 5.73964 2.95441 4.07816C2.95441 2.41667 4.27904 1.06641 5.90897 1.06641C7.53889 1.06641 8.86352 2.41667 8.86352 4.07816Z" fill="#3B3E44"/>
</svg>
