<svg width="20" height="20" viewBox="0 0 20 20" fill="none" xmlns="http://www.w3.org/2000/svg">
<path fill-rule="evenodd" clip-rule="evenodd" d="M16.1111 1.44928C16.8444 1.44928 17.4667 1.93623 17.6889 2.62029L20 9.56522V18.8406C20 19.4783 19.5 20 18.8889 20H17.7778C17.1667 20 16.6667 19.4783 16.6667 18.8406V17.6812H3.33333V18.8406C3.33333 19.4783 2.83333 20 2.22222 20H1.11111C0.5 20 0 19.4783 0 18.8406V9.56522L2.31111 2.62029C2.54444 1.93623 3.15556 1.44928 3.88889 1.44928H6.66667C6.66667 0.648862 7.31553 0 8.11594 0H11.8841C12.6845 0 13.3333 0.648862 13.3333 1.44928H16.1111ZM2.22266 12.4616C2.22266 13.4239 2.96711 14.2007 3.88934 14.2007C4.81158 14.2007 5.55603 13.4239 5.55603 12.4616C5.55603 11.4992 4.81158 10.7224 3.88934 10.7224C2.96711 10.7224 2.22266 11.4992 2.22266 12.4616ZM16.1122 14.2007C15.19 14.2007 14.4456 13.4239 14.4456 12.4616C14.4456 11.4992 15.19 10.7224 16.1122 10.7224C17.0345 10.7224 17.7789 11.4992 17.7789 12.4616C17.7789 13.4239 17.0345 14.2007 16.1122 14.2007ZM3.88933 3.18766L2.22266 8.405H17.7782L16.1116 3.18766H3.88933Z" fill="#84878B"/>
</svg>
