<svg width="20" height="20" viewBox="0 0 20 20" fill="none" xmlns="http://www.w3.org/2000/svg">
<path fill-rule="evenodd" clip-rule="evenodd" d="M18.1036 5.9166C18.9062 5.64928 19.7389 6.23252 19.9496 7.20458C20.1603 8.17664 19.6888 9.173 18.8761 9.45247L13.5487 11.1779L9.18449 12.5874L3.8571 14.3128L2.25186 14.8353L1.47934 13.2192L0.0849602 10.2871C-0.14384 9.80596 0.102325 9.23333 0.608882 9.06832C0.916569 8.96809 1.25443 9.0442 1.48943 9.26668L3.08458 10.7769L8.07085 9.16085L4.47483 1.61818C4.17988 0.999524 4.49842 0.262782 5.15118 0.0538767C5.57811 -0.0827571 6.04545 0.045581 6.34273 0.381093L12.7762 7.64201L18.1036 5.9166ZM1.59399 17.5695C0.922915 17.5695 0.378903 18.1135 0.378903 18.7846C0.378903 19.4556 0.922914 19.9996 1.59399 19.9996H18.1092C18.7803 19.9996 19.3243 19.4556 19.3243 18.7846C19.3243 18.1135 18.7803 17.5695 18.1092 17.5695H1.59399Z" fill="#84878B"/>
</svg>
