<svg width="17" height="16" viewBox="0 0 17 16" fill="none" xmlns="http://www.w3.org/2000/svg">
<path d="M16.0129 8.80444C15.8975 8.7063 15.7576 8.64346 15.6092 8.6231C15.4608 8.60274 15.3099 8.62567 15.1735 8.68928C14.3282 9.08732 13.4091 9.29218 12.4795 9.28977C10.7598 9.28763 9.11074 8.586 7.89177 7.33786C6.67279 6.08972 5.98281 4.3963 5.97227 2.62683C5.97591 2.07227 6.04299 1.52008 6.17212 0.981658C6.19952 0.838149 6.18924 0.689717 6.14234 0.551655C6.09545 0.413593 6.01362 0.290893 5.90531 0.196197C5.79699 0.101501 5.6661 0.0382333 5.52611 0.0129114C5.38613 -0.0124104 5.24211 0.00112967 5.1089 0.0521367C3.85568 0.631984 2.76628 1.53012 1.94303 2.66218C1.11979 3.79425 0.589724 5.12307 0.402637 6.52381C0.21555 7.92456 0.37758 9.35126 0.873507 10.6699C1.36943 11.9885 2.18298 13.1557 3.23771 14.062C4.29245 14.9682 5.55375 15.5837 6.90314 15.8506C8.25252 16.1174 9.64569 16.027 10.9518 15.5877C12.2578 15.1484 13.434 14.3746 14.3696 13.3392C15.3053 12.3037 15.9698 11.0405 16.3007 9.66816C16.341 9.51104 16.3352 9.34515 16.2839 9.19144C16.2327 9.03772 16.1384 8.90306 16.0129 8.80444ZM8.41847 14.3075C7.07686 14.2978 5.77097 13.8616 4.67961 13.0586C3.58824 12.2557 2.76475 11.1252 2.32189 9.82208C1.87903 8.51893 1.83845 7.10678 2.2057 5.77898C2.57296 4.45118 3.33009 3.27264 4.37344 2.40473V2.62683C4.37556 4.83833 5.23026 6.95864 6.74998 8.52241C8.2697 10.0862 10.3303 10.9657 12.4795 10.9678C13.0438 10.97 13.6066 10.9093 14.1582 10.7869C13.6066 11.8608 12.7804 12.7593 11.7689 13.3855C10.7574 14.0118 9.59895 14.3419 8.41847 14.3404V14.3075Z" fill="#868B90"/>
</svg>
